<?xml version="1.0" encoding="UTF-8" standalone="no"?>
<!-- Generator: Adobe Illustrator 16.0.0, SVG Export Plug-In . SVG Version: 6.00 Build 0)  -->

<svg version="1.1" id="Layer_1" x="0px" y="0px" width="1000" height="269.74399" viewBox="0 0 1000 269.744" enable-background="new 0 0 1000 269.391" xml:space="preserve" xmlns="http://www.w3.org/2000/svg" xmlns:svg="http://www.w3.org/2000/svg"><defs id="defs23" />

<style type="text/css" id="style2">
	.st0{fill:#FFFFFF;}
	.st1{fill:#DB0011;}
</style><g id="g658" transform="translate(0,0.17649)"><g id="g18">
	
	
	
	
	<path id="polygon10" d="M 655.664,123.527 H 607.541 V 77.536 H 582.66 v 112.807 h 24.881 v -47.315 h 48.123 v 47.315 h 24.881 V 77.536 h -24.881 z" />
	<path d="m 694.043,155.354 c 0.163,27.182 20.871,37.517 44.374,37.517 29.747,0 48.535,-14.691 48.535,-35.39 0,-25.594 -25.021,-29.98 -33.61,-32.546 -27.202,-8.13 -31.082,-9.635 -31.082,-18.327 0,-9.481 9.364,-13.743 17.03,-13.743 10.899,0 17.654,4.856 18.745,16.265 h 24.869 c 0.337,-24.393 -17.778,-33.648 -42.54,-33.648 -21.674,0 -43.935,10.43 -43.935,33.496 0,21.172 17.688,27.544 33.763,32.546 17.676,5.502 30.04,5.589 30.04,17.758 0,11.057 -11.99,15.261 -20.421,15.261 -12.153,0 -19.944,-5.522 -20.649,-19.189 z" id="path12" />
	<path d="m 824.138,141.048 h 20.377 c 10.65,0 19.32,4.585 19.32,16.119 0,11.687 -9.75,15.793 -19.781,15.793 h -19.916 z m -24.371,49.295 h 47.212 c 21.625,0 43.277,-7.742 43.277,-31.754 0,-14.063 -9.152,-23.704 -25.569,-26.547 15.088,-4.741 21.43,-13.59 21.43,-24.647 0,-21.012 -17.974,-29.858 -38.156,-29.858 h -48.193 v 112.806 z m 24.371,-94.949 h 18.099 c 8.637,0 18.544,3.632 18.544,14.375 0,9.48 -8.214,14.691 -16.694,14.691 H 824.139 V 95.394 Z" id="path14" />
	<path d="M 1000,111.496 C 998.904,88.71 980.518,75.168 954.633,75.168 c -34.917,0 -54.665,23.544 -54.665,59.25 0,38.221 18.169,58.453 54.665,58.453 25.732,0 44.006,-13.927 45.129,-36.252 h -25.624 c -2.426,11.844 -9.82,17.133 -20.611,17.133 -20.854,0 -27.811,-20.22 -27.811,-39.024 0,-19.745 8.063,-40.283 29.232,-40.283 10.829,0 17.909,8.005 18.63,17.052 H 1000 Z" id="path16" />
</g><g id="g639" transform="translate(504.24481,230.97675)"><path id="rect4" class="st0" style="fill:#ffffff;stroke-width:3.16973" d="M -369.21434,-231.15324 H -99.78732 V 38.27377 h -269.42702 z" /><path id="polygon8-8" class="st1" style="fill:#db0011;stroke-width:3.16973" d="M 34.92619,-96.122764 -99.78732,-231.15324 V 38.590742 Z" /><path id="polygon10-0" class="st1" style="fill:#db0011;stroke-width:3.16973" d="M -234.50082,-96.122764 -99.78732,-231.15324 H -369.21433 Z" /><path id="polygon12" class="st1" style="fill:#db0011;stroke-width:3.16973" d="M -504.24481,-96.122764 -369.21433,38.590742 V -231.15324 Z" /><path id="polygon14" class="st1" style="fill:#db0011;stroke-width:3.16973" d="M -234.50082,-96.122764 -369.21433,38.590742 h 269.42701 z" /></g></g></svg>
