<svg xmlns="http://www.w3.org/2000/svg" xmlns:xlink="http://www.w3.org/1999/xlink" width="105px" height="69px" viewBox="0 0 105 69"><title>Group 29</title><desc>Created with Sketch.</desc><defs><polygon id="path-1" points="0 68.5825785 103.937486 68.5825785 103.937486 0 0 0"></polygon></defs><g id="Design-" stroke="none" stroke-width="1" fill="none" fill-rule="evenodd"><g id="0.0-Thrive-in-Work-" transform="translate(-947.000000, -1787.000000)"><g id="Group-29" transform="translate(947.000000, 1787.000000)"><g id="Group-28" transform="translate(0.522388, 0.000000)"><path d="M33.5411366,21.9330471 C33.575235,21.9330471 33.6093333,21.9307661 33.644,21.9262041 C34.1043279,21.8703198 34.4322404,21.4500471 34.3759781,20.9881463 C34.2918689,20.2935843 34.2492459,19.5864769 34.2492459,18.8856421 C34.2492459,9.40184876 41.9384262,1.68639421 51.3899235,1.68639421 C57.342929,1.68639421 62.7821858,4.71555124 65.939694,9.78847686 C66.1852022,10.1830884 66.7034973,10.3017 67.0973333,10.0570636 C67.4906011,9.81014628 67.6105137,9.29008017 67.3650055,8.8954686 C63.8983388,3.32585702 57.9260109,0.00017107438 51.3899235,0.00017107438 C41.0120874,0.00017107438 32.568765,8.47291488 32.568765,18.8856421 C32.568765,19.6543364 32.6159344,20.4298736 32.7085683,21.1917248 C32.7602842,21.6194107 33.1228634,21.9330471 33.5411366,21.9330471" id="Fill-1" fill="#009683"></path><path d="M50.3644721,24.7441983 C47.7724284,24.4111736 46.5414776,22.6787603 46.4943082,21.2109421 C46.4511169,19.8645868 47.331423,18.8854711 48.8488,18.5895124 C48.9755322,18.5644215 49.1045377,18.5524463 49.2363847,18.5524463 C49.8456087,18.5524463 50.4929093,18.8164711 51.094177,19.3188595 C52.4785705,20.4747521 53.300341,22.5270744 53.3009093,24.8228926 C52.342177,24.897595 51.3555978,24.8702231 50.3644721,24.7441983 M73.1046689,7.31342975 C71.9697617,4.761 69.1219803,4.51408264 68.9929749,4.50495868 C68.5371934,4.46504132 68.150177,4.79578512 68.096188,5.2428595 C67.8029421,7.64303306 68.7088219,9.21577686 69.3555541,10.005 C68.0251497,11.739124 67.3295432,12.2021653 65.3387672,11.3946942 C64.7056743,11.1380826 64.0828109,10.6054711 63.3610623,9.98960331 C61.265718,8.19902479 58.396341,5.74923967 52.3097836,8.01312397 C48.287882,9.51059504 45.049106,12.9309421 41.2340678,17.247719 L41.1204066,17.3748843 C38.6380459,20.1850661 35.2373027,24.0330992 30.5294557,24.0713058 C28.7216743,24.0981074 27.4793574,23.6396281 26.8832044,22.7802645 C26.4689093,22.1832149 26.4842536,21.5354132 26.5405158,21.3329752 C26.7695432,20.987405 26.7155541,20.5169504 26.3967344,20.2352479 C26.0483628,19.9256033 25.5181333,19.9586777 25.2106798,20.3088099 C24.7259148,20.8596694 24.707729,22.1370248 25.1703301,23.1543471 C25.6136087,24.1306116 26.8871825,25.7575289 30.4453464,25.7575289 L30.5425268,25.7575289 C35.9988328,25.7124793 39.8377399,21.3683306 42.3774995,18.4931405 L42.4905923,18.365405 C46.1482098,14.2288264 49.2375213,10.9550331 52.8940022,9.59385124 C58.0559257,7.67268595 60.296188,9.58586777 62.272188,11.2732314 C63.0700896,11.9546777 63.8236634,12.5979174 64.7085158,12.9571736 C68.207576,14.3788017 69.5646907,12.553438 71.132647,10.4406694 C71.4025923,10.0768512 71.3309858,9.55906612 70.9780678,9.27508264 C70.9240787,9.23117355 69.8119038,8.30965289 69.724953,6.3896281 C70.4222645,6.63996694 71.3457617,7.18626446 71.7060678,8.36439669 C71.8129093,8.71680992 72.1357071,8.95745455 72.5016962,8.96087603 C72.7028765,8.96258678 77.2214776,9.0675124 78.1046251,14.6490992 C76.7594448,14.7642893 74.564647,14.7329256 73.7093464,13.7766198 C73.5024831,13.5445289 73.1842317,13.4464463 72.8835978,13.5205785 C72.5829639,13.5947107 72.3471169,13.8290826 72.2698273,14.131314 C72.0413683,15.0294545 71.1906142,17.5659174 70.0142208,18.498843 C69.3799913,19.0023719 68.5440131,19.3872893 67.7347454,19.7608017 C66.5072044,20.3270579 65.3472918,20.8619504 64.836953,21.8359339 C64.6101989,22.2693223 64.5204066,22.7483306 64.4254995,23.255281 C64.2368219,24.2651901 64.0117727,25.4695537 62.5506579,26.7822645 C62.5603191,26.4697686 62.5614557,26.1207769 62.5506579,25.7352893 C62.5216743,24.690595 62.2039913,23.4753967 61.7618492,22.7112645 C61.5390732,22.3269174 61.0571497,22.1815041 60.6610404,22.3799504 L60.3558601,22.5327769 C58.8913355,23.2661157 57.1239038,24.140876 54.9671825,24.5805372 C54.9069421,21.8861157 53.8805814,19.4517273 52.1688437,18.0232562 C51.0418929,17.0829174 49.7484284,16.6968595 48.5288437,16.9346529 C46.2027672,17.388 44.7450623,19.0873388 44.8149639,21.2645455 C44.8842973,23.4246446 46.5841005,25.957686 50.1513574,26.4161653 C50.8475322,26.505124 51.5414339,26.5496033 52.2279475,26.5496033 C52.5393792,26.5496033 52.8485377,26.5376281 53.1559913,26.5188099 C52.9849311,27.5452562 52.6649749,28.5848182 52.191576,29.6272314 C52.191576,29.6272314 52.191576,29.6272314 52.1910077,29.6278017 C51.9625486,30.1284793 50.0513355,34.4737686 51.7011279,36.5232397 C52.2341989,37.1858678 53.0224393,37.5188926 54.0533464,37.5188926 C54.4750295,37.5188926 54.9376306,37.4635785 55.4394448,37.3518099 C63.7236415,35.5110496 68.6667672,28.7308017 69.7539366,23.2102314 C69.843729,22.7534628 69.5476415,22.3098099 69.0924284,22.2197107 C68.6406251,22.1341736 68.1962098,22.4267107 68.1058492,22.8834793 C67.0902863,28.0425124 62.2881005,34.1036777 55.0762973,35.7060744 C54.3505705,35.8668843 53.4037727,35.955843 53.0082317,35.4648595 C52.2898929,34.5724215 52.9911825,31.9241901 53.7191825,30.3280661 C53.7197508,30.3274959 53.7197508,30.3269256 53.7197508,30.3263554 C54.3284066,28.9879835 54.7165596,27.6456198 54.8847781,26.3169421 C57.1938055,25.9149174 59.055576,25.060686 60.6110295,24.288 C60.7491279,24.7322231 60.857106,25.2711074 60.8713137,25.7826198 C60.9190514,27.4899421 60.7002536,28.3647025 60.6991169,28.368124 C60.6087563,28.701719 60.7309421,29.0564132 61.0065705,29.2634132 C61.1548984,29.3746116 61.3322098,29.4316364 61.5095213,29.4316364 C61.6618273,29.4316364 61.813565,29.3900083 61.9493902,29.3067521 C65.4012809,27.1808678 65.808188,25.0059421 66.0769967,23.5666364 C66.1508765,23.1708843 66.2150951,22.829876 66.3242098,22.620595 C66.5685814,22.1541322 67.5187891,21.7156116 68.4371716,21.2919174 C69.2936087,20.8973058 70.2648437,20.4496612 71.056494,19.8206777 C72.2902863,18.8421322 73.108647,16.9551818 73.5405596,15.7148926 C75.6432918,16.780686 78.7712481,16.284 79.1832699,16.2115785 C79.6134776,16.1363058 79.9141115,15.7439752 79.8766033,15.3077355 C79.3696743,9.50033058 75.5125814,7.59456198 73.1046689,7.31342975" id="Fill-3" fill="#009683"></path><path d="M49.2222907,35.9531628 C45.1412852,35.3315926 41.707012,33.5929066 39.0143781,30.785576 C36.9963235,28.6813612 36.1722798,26.7288322 36.1626186,26.7043116 C35.9858754,26.2754851 35.4959956,26.0701959 35.0669246,26.2469727 C34.6378536,26.4237496 34.4326951,26.9158736 34.6088699,27.3464107 C34.7532197,27.698824 38.2642142,35.9890884 48.9705311,37.6194273 C49.0131541,37.6262702 49.0552087,37.6291215 49.0972634,37.6291215 C49.5053071,37.6291215 49.8639082,37.3303116 49.9264219,36.9128901 C49.9963235,36.4527 49.681482,36.0227331 49.2222907,35.9531628" id="Fill-5" fill="#009683"></path><path d="M0,48.7174785 C0,44.8888339 3.04839344,41.7707182 6.88389071,41.7707182 C9.18496175,41.7707182 11.1905137,42.8764289 12.4100984,44.5934455 L10.3255519,46.112586 C9.5583388,45.0268339 8.41831694,44.3562223 6.98220765,44.3562223 C4.52371585,44.3562223 2.73412022,46.2899331 2.73412022,48.7174785 C2.73412022,51.145024 4.50439344,53.1186521 6.96231694,53.1186521 C8.41831694,53.1186521 9.5583388,52.4474702 10.3255519,51.3423298 L12.4100984,52.8814289 C11.1905137,54.5784868 9.18496175,55.703586 6.88389071,55.703586 C3.04839344,55.703586 0,52.5854702 0,48.7174785" id="Fill-7" fill="#073E49"></path><path d="M20.3585399,50.908257 C20.3585399,49.4871992 19.1781683,48.5400174 17.9790426,48.5400174 C16.6804634,48.5400174 15.598977,49.5459347 15.598977,50.908257 C15.598977,52.2500504 16.6804634,53.2958851 17.9790426,53.2958851 C19.2372721,53.2958851 20.3585399,52.3093562 20.3585399,50.908257 L20.3585399,50.908257 Z M23.0136656,46.3297364 L23.0136656,55.5261248 L20.4369661,55.5261248 L20.4369661,54.3816372 C19.7879607,55.2894719 18.5098404,55.7034719 17.4868896,55.7034719 C15.1267148,55.7034719 12.9830645,53.8678438 12.9830645,50.908257 C12.9830645,47.9481 15.1267148,46.1124719 17.4868896,46.1124719 C18.5484852,46.1124719 19.7879607,46.5070835 20.4369661,47.4348769 L20.4369661,46.3297364 L23.0136656,46.3297364 Z" id="Fill-9" fill="#073E49"></path><mask id="mask-2" fill="white"><use xlink:href="#path-1"></use></mask><g id="Clip-12"></g><path d="M25.021377,55.5261818 L27.5975082,55.5261818 L27.5975082,46.3297934 L25.021377,46.3297934 L25.021377,55.5261818 Z M24.6673224,43.1324132 C24.6673224,42.2644959 25.4152131,41.593314 26.2994973,41.593314 C27.2042404,41.593314 27.9322404,42.2644959 27.9322404,43.1324132 C27.9322404,44.0009008 27.2042404,44.6914711 26.2994973,44.6914711 C25.4152131,44.6914711 24.6673224,44.0009008 24.6673224,43.1324132 L24.6673224,43.1324132 Z" id="Fill-11" fill="#073E49" mask="url(#mask-2)"></path><path d="M36.3111169,46.388586 L35.7212153,48.8554785 C35.1705268,48.5600901 34.7181552,48.5201727 34.403882,48.5201727 C33.085412,48.5201727 32.1806689,49.7439248 32.1806689,52.3682058 L32.1806689,55.5256686 L29.6045377,55.5256686 L29.6045377,46.3292802 L32.1613464,46.3292802 L32.1613464,48.2829496 C32.6728219,46.7438504 33.7150951,46.0926273 34.8556852,46.0926273 C35.3478383,46.0926273 35.8979585,46.1718917 36.3111169,46.388586" id="Fill-13" fill="#073E49" mask="url(#mask-2)"></path><path d="M46.0866055,50.4738421 L46.0866055,55.5256686 L43.5104743,55.5256686 L43.5104743,50.7498421 C43.5104743,49.2900074 42.6449443,48.638214 41.7600918,48.638214 C40.8360262,48.638214 39.6948678,49.1314785 39.6948678,50.8091479 L39.6948678,55.5256686 L37.1187366,55.5256686 L37.1187366,46.3292802 L39.6948678,46.3292802 L39.6948678,47.8689496 C40.0881355,46.6258091 41.5435672,46.0926273 42.4483104,46.0926273 C44.8476984,46.0926273 46.1064962,47.7109909 46.0866055,50.4738421" id="Fill-14" fill="#073E49" mask="url(#mask-2)"></path><path d="M47.4058142,52.5655116 L49.8250929,52.5655116 C49.8250929,53.0986934 50.2774645,53.6706521 51.1822077,53.6706521 C51.9295301,53.6706521 52.499541,53.355305 52.499541,52.8221231 C52.499541,52.4275116 52.1852678,52.2302058 51.4964809,52.0528587 L50.2774645,51.7563298 C47.9172896,51.1250653 47.6030164,49.8026603 47.6030164,48.8360901 C47.6030164,47.4150322 49.0772022,46.0926273 51.2020984,46.0926273 C52.8734863,46.0926273 54.8403934,46.9217678 54.8205027,49.0921314 L52.3620109,49.0921314 C52.3620109,48.4808256 51.8505355,48.1449496 51.2407432,48.1449496 C50.6508415,48.1449496 50.1791475,48.4414785 50.1791475,48.9147843 C50.1791475,49.348743 50.5724153,49.5660074 51.0838907,49.7040074 L52.5984262,50.0991893 C54.8011803,50.6911066 55.0762404,52.0722471 55.0762404,52.8221231 C55.0762404,54.7564041 53.1093333,55.703586 51.2214208,55.703586 C49.2937268,55.703586 47.4257049,54.5978752 47.4058142,52.5655116" id="Fill-15" fill="#073E49" mask="url(#mask-2)"></path><path d="M68.274977,51.3621174 C68.274977,50.5135884 67.7043978,49.6251421 66.4063869,49.6251421 L63.7126164,49.6251421 L63.7126164,53.0985223 L66.3677421,53.0985223 C67.6458623,53.0985223 68.274977,52.2699521 68.274977,51.3621174 L68.274977,51.3621174 Z M63.7126164,44.3560512 L63.7126164,47.3355967 L66.1904306,47.3355967 C67.0553923,47.3355967 67.5867585,46.7642083 67.5867585,45.8364149 C67.5867585,45.0072744 67.1537093,44.3560512 66.1904306,44.3560512 L63.7126164,44.3560512 Z M71.0284197,51.6381174 C71.0284197,53.5125223 69.7502995,55.5260678 66.7604415,55.5260678 L60.9784962,55.5260678 L60.9784962,41.929076 L66.3472831,41.929076 C68.7665617,41.929076 70.3208787,43.389481 70.3208787,45.4412331 C70.3208787,46.4482909 69.9270426,47.810043 68.4522885,48.2633901 C70.182212,48.559919 71.0284197,50.0990182 71.0284197,51.6381174 L71.0284197,51.6381174 Z" id="Fill-16" fill="#073E49" mask="url(#mask-2)"></path><path d="M79.4085464,50.908257 C79.4085464,49.4871992 78.2281749,48.5400174 77.0290492,48.5400174 C75.7304699,48.5400174 74.6489836,49.5459347 74.6489836,50.908257 C74.6489836,52.2500504 75.7304699,53.2958851 77.0290492,53.2958851 C78.2872787,53.2958851 79.4085464,52.3093562 79.4085464,50.908257 L79.4085464,50.908257 Z M82.0636721,46.3297364 L82.0636721,55.5261248 L79.4869727,55.5261248 L79.4869727,54.3816372 C78.8379672,55.2894719 77.559847,55.7034719 76.5368962,55.7034719 C74.1767213,55.7034719 72.033071,53.8678438 72.033071,50.908257 C72.033071,47.9481 74.1767213,46.1124719 76.5368962,46.1124719 C77.5984918,46.1124719 78.8379672,46.5070835 79.4869727,47.4348769 L79.4869727,46.3297364 L82.0636721,46.3297364 Z" id="Fill-17" fill="#073E49" mask="url(#mask-2)"></path><path d="M93.0395934,50.4738421 L93.0395934,55.5256686 L90.4634623,55.5256686 L90.4634623,50.7498421 C90.4634623,49.2900074 89.5979322,48.638214 88.7130798,48.638214 C87.7890142,48.638214 86.6478557,49.1314785 86.6478557,50.8091479 L86.6478557,55.5256686 L84.0717246,55.5256686 L84.0717246,46.3292802 L86.6478557,46.3292802 L86.6478557,47.8689496 C87.0411235,46.6258091 88.4965552,46.0926273 89.4012984,46.0926273 C91.8006863,46.0926273 93.0594842,47.7109909 93.0395934,50.4738421" id="Fill-18" fill="#073E49" mask="url(#mask-2)"></path><polygon id="Fill-19" fill="#073E49" mask="url(#mask-2)" points="100.731672 55.5258967 97.5059672 51.5398636 97.5059672 55.5258967 94.9298361 55.5258967 94.9298361 41.4156818 97.5059672 41.4156818 97.5059672 49.1317066 99.826929 46.3295083 103.13106 46.3295083 99.5518689 50.3754174 103.937486 55.5258967"></polygon><path d="M38.3312175,65.9819628 C38.2482448,65.3113512 37.7543869,64.9441116 37.0951519,64.9441116 C36.4359169,64.9441116 35.9409224,65.2748554 35.8130536,65.9819628 L38.3312175,65.9819628 Z M39.2103869,66.7078884 L35.8039607,66.7078884 C35.9233049,67.4064421 36.4359169,67.7463099 37.1320918,67.7463099 C37.6259497,67.7463099 38.0930973,67.5353182 38.3312175,67.1401364 L39.0455781,67.4982521 C38.6704962,68.2150537 37.9010098,68.5828636 37.086059,68.5828636 C35.8499934,68.5828636 34.8787585,67.6915661 34.8787585,66.3315248 C34.8787585,64.9720537 35.8676109,64.1075579 37.086059,64.1075579 C38.3039388,64.1075579 39.2285727,64.9720537 39.2285727,66.3224008 C39.2285727,66.4421529 39.2194798,66.5698884 39.2103869,66.7078884 L39.2103869,66.7078884 Z" id="Fill-20" fill="#073E49" mask="url(#mask-2)"></path><path d="M39.6859454,67.1859273 L40.5196503,67.1859273 C40.5196503,67.525795 40.8214208,67.8194727 41.3073224,67.8194727 C41.8017486,67.8194727 42.1035191,67.5902331 42.1035191,67.2686132 C42.1035191,66.9840595 41.8750601,66.8369355 41.5539672,66.7633736 L40.9771366,66.6259438 C40.1809399,66.4138116 39.8149508,66.0009521 39.8149508,65.3668364 C39.8149508,64.6682826 40.4463388,64.1077289 41.3340328,64.1077289 C42.0665792,64.1077289 42.8548197,64.4937868 42.8548197,65.393638 L41.9938361,65.393638 C41.9938361,65.0822826 41.6733115,64.8701504 41.3533552,64.8701504 C40.9771366,64.8701504 40.7208306,65.0999603 40.7208306,65.393638 C40.7208306,65.660514 40.9680437,65.807638 41.2340109,65.8715058 L41.8835847,66.028324 C42.799694,66.2581339 43.0014426,66.8272413 43.0014426,67.2874314 C43.0014426,68.1045967 42.1955847,68.5824645 41.3164153,68.5824645 C40.5196503,68.5824645 39.7046995,68.0766545 39.6859454,67.1859273" id="Fill-21" fill="#073E49" mask="url(#mask-2)"></path><polygon id="Fill-22" fill="#073E49" mask="url(#mask-2)" points="45.9406645 64.9528364 45.0251235 64.9528364 45.0251235 68.4906545 44.1277683 68.4906545 44.1277683 64.9528364 43.358282 64.9528364 43.358282 64.2001091 44.1277683 64.2001091 44.1277683 62.5914397 45.0251235 62.5914397 45.0251235 64.2001091 45.9406645 64.2001091"></polygon><path d="M46.0960393,67.9761198 C46.0960393,67.6271281 46.3892852,67.3699463 46.7279956,67.3699463 C47.0763672,67.3699463 47.3690448,67.6271281 47.3690448,67.9761198 C47.3690448,68.3251116 47.0763672,68.5822934 46.7279956,68.5822934 C46.3892852,68.5822934 46.0960393,68.3251116 46.0960393,67.9761198" id="Fill-23" fill="#073E49" mask="url(#mask-2)"></path><polygon id="Fill-24" fill="#073E49" mask="url(#mask-2)" points="52.0477377 62.4078769 52.0477377 68.4907116 51.1509508 68.4907116 51.1509508 63.7029099 49.8591913 64.2178438 49.8591913 63.3544884 52.0022732 62.4078769"></polygon><path d="M54.5018536,63.9972149 C54.5018536,64.4203388 54.859318,64.7419587 55.3264656,64.7419587 C55.7930448,64.7419587 56.149941,64.4203388 56.149941,63.9972149 C56.149941,63.5752314 55.7930448,63.2250992 55.3264656,63.2250992 C54.859318,63.2250992 54.5018536,63.5752314 54.5018536,63.9972149 M56.6358426,66.6346116 C56.6358426,65.954876 56.0402579,65.4770083 55.3264656,65.4770083 C54.5939191,65.4770083 53.9983344,65.964 53.9983344,66.6254876 C53.9983344,67.268157 54.575165,67.7374711 55.3264656,67.7374711 C56.1044765,67.7374711 56.6358426,67.2596033 56.6358426,66.6346116 M57.5786623,66.6990496 C57.5786623,67.8195868 56.6261814,68.5825785 55.3264656,68.5825785 C54.0165202,68.5825785 53.0555148,67.8195868 53.0555148,66.7081736 C53.0555148,65.9360579 53.5130011,65.2836942 54.1909902,65.0356364 C53.8250011,64.8155207 53.5681268,64.4294628 53.5681268,63.9145289 C53.5681268,63.0511736 54.2915803,62.4079339 55.3264656,62.4079339 C56.3522579,62.4079339 57.0751432,63.0511736 57.0751432,63.9145289 C57.0751432,64.4294628 56.8188372,64.8155207 56.4528481,65.0356364 C57.1302689,65.2928182 57.5786623,65.9360579 57.5786623,66.6990496" id="Fill-25" fill="#073E49" mask="url(#mask-2)"></path><path d="M61.6256831,64.4571769 C61.6256831,63.785995 61.1039781,63.2807554 60.4078033,63.2716314 C59.6752568,63.2716314 59.1535519,63.7586231 59.1535519,64.4109868 C59.1535519,65.0451025 59.6479781,65.5229702 60.316306,65.5503421 C61.0397596,65.5503421 61.5984044,65.0907223 61.6256831,64.4571769 M62.6241967,65.3296562 C62.6241967,66.8271273 61.9922404,68.5823504 60.1429727,68.5823504 C59.4371366,68.5823504 58.6778798,68.3166149 58.2749508,67.3608793 L59.0711475,67.0113174 C59.3092678,67.534805 59.7207213,67.728119 60.1514973,67.728119 C61.0221421,67.728119 61.6899016,66.8185736 61.6620546,65.7065901 C61.3784699,66.1017719 60.8755191,66.3772017 60.2702732,66.3772017 C59.0438689,66.3772017 58.2192568,65.4402843 58.2192568,64.3927388 C58.2192568,63.3451934 59.0529617,62.4077058 60.3623388,62.4077058 C61.8274317,62.4077058 62.6241967,63.6388711 62.6241967,65.3296562" id="Fill-26" fill="#073E49" mask="url(#mask-2)"></path><path d="M66.7360044,64.4571769 C66.7360044,63.785995 66.2137311,63.2807554 65.5175563,63.2716314 C64.7850098,63.2716314 64.2627366,63.7586231 64.2627366,64.4109868 C64.2627366,65.0451025 64.7582995,65.5229702 65.426059,65.5503421 C66.1500809,65.5503421 66.7081574,65.0907223 66.7360044,64.4571769 M67.7339497,65.3296562 C67.7339497,66.8271273 67.1025617,68.5823504 65.2521574,68.5823504 C64.5468896,68.5823504 63.7870645,68.3166149 63.3841355,67.3608793 L64.1809005,67.0113174 C64.4190208,67.534805 64.8310426,67.728119 65.2612503,67.728119 C66.1313268,67.728119 66.7996546,66.8185736 66.772376,65.7065901 C66.488223,66.1017719 65.9847038,66.3772017 65.3805945,66.3772017 C64.1530536,66.3772017 63.3295781,65.4402843 63.3295781,64.3927388 C63.3295781,63.3451934 64.1627148,62.4077058 65.4715235,62.4077058 C66.9371847,62.4077058 67.7339497,63.6388711 67.7339497,65.3296562" id="Fill-27" fill="#073E49" mask="url(#mask-2)"></path></g></g></g></g></svg>