<svg width="141" height="40" viewBox="0 0 141 40" fill="none" xmlns="http://www.w3.org/2000/svg">
<path d="M19.9932 9.65465L13.3288 19.3074H0L13.3288 0L19.9932 9.65465Z" fill="#0066FF"/>
<path d="M39.9864 19.3074H26.6576L19.9932 9.65465L26.6576 0L39.9864 19.3074Z" fill="#0066FF"/>
<path d="M39.9862 20.668L26.6574 39.9754L20.8193 31.5199L28.312 20.668H39.9862Z" fill="#0066FF"/>
<path d="M13.3288 39.9754L26.6576 20.668H0L13.3288 39.9754Z" fill="#0066FF"/>
<path d="M52.0091 17.8932C49.2843 17.8932 47.3707 16.2885 47.3555 13.8406H49.1549C49.252 15.4129 50.3392 16.3856 52.0567 16.3856C53.4525 16.3856 54.3112 15.7384 54.3112 14.6724C54.3112 13.2943 52.8527 13.1001 51.455 12.7423C49.8023 12.3216 47.6773 11.7696 47.6773 9.37113C47.6773 7.32866 49.2672 6 51.7159 6C54.1646 6 55.9145 7.33246 55.9316 9.3559H54.077C54.0123 8.18714 53.104 7.55517 51.6454 7.55517C50.2669 7.55517 49.4233 8.17192 49.4233 9.20933C49.4233 10.5056 50.72 10.8787 52.0339 11.17C53.4924 11.4955 56.1049 11.9009 56.1049 14.5106C56.1125 16.5607 54.4902 17.8932 52.0091 17.8932Z" fill="#01052F"/>
<path d="M65.7606 13.3578C65.7606 15.9675 64.2373 17.6693 62.0304 17.6693C60.8632 17.6693 59.9055 17.2162 59.3875 16.3559V20.7168H57.6738V9.33758H59.3437V10.8299C59.8788 9.80775 60.867 9.17578 62.2304 9.17578C64.3592 9.17578 65.7606 10.8299 65.7606 13.3578ZM64.0469 13.4397C64.0469 11.8007 63.1215 10.7157 61.6953 10.7157C60.2691 10.7157 59.3228 11.8007 59.3228 13.4397C59.3228 15.0786 60.2463 16.1788 61.6934 16.1788C63.1006 16.1788 64.0412 15.0919 64.0412 13.4397H64.0469Z" fill="#01052F"/>
<path d="M73.9409 11.8524V17.6067H72.3034V16.358C71.6389 17.4278 70.6011 17.7856 69.5957 17.7856C67.8935 17.7856 66.9033 16.7806 66.9033 15.3111C66.9033 13.4304 68.4761 13.0268 69.4815 12.8631L71.2485 12.5871C71.6065 12.5395 72.2863 12.4101 72.2863 11.5992C72.2863 10.8701 71.7036 10.5618 70.763 10.5618C69.5957 10.5618 68.9312 11.0472 68.7522 11.9551H67.1299C67.3203 10.2686 68.6703 9.18362 70.8429 9.18362C72.7566 9.17791 73.9409 10.0212 73.9409 11.8524ZM72.2387 14.1061V13.516C71.8606 13.6267 71.4758 13.7132 71.0867 13.7749L70.146 13.9215C69.7252 13.9862 68.5904 14.1632 68.5904 15.233C68.5904 15.9468 69.0931 16.3523 69.9842 16.3523C71.298 16.3428 72.2387 15.4519 72.2387 14.1061Z" fill="#01052F"/>
<path d="M80.3781 10.9122H80.0544C78.4473 10.9122 77.6209 11.7554 77.6209 13.4895V17.6068H75.9072V9.33986H77.6114V10.6609C78.1141 9.54164 78.99 9.26562 79.9135 9.26562H80.3838L80.3781 10.9122Z" fill="#01052F"/>
<path d="M88.3894 13.9574H82.3571C82.3571 15.4974 83.2978 16.3559 84.7734 16.3559C85.7941 16.3559 86.5081 15.918 86.7994 15.1738H88.3075C87.9019 16.7289 86.5233 17.7835 84.644 17.7835C82.2924 17.7835 80.752 16.1293 80.752 13.5367C80.752 10.8947 82.3571 9.17578 84.7087 9.17578C86.946 9.17578 88.3894 10.7481 88.3894 13.2436V13.9574ZM84.6763 10.6015C83.3949 10.6015 82.4866 11.3972 82.3724 12.7087H86.7518C86.7518 11.4295 85.973 10.6015 84.6763 10.6015Z" fill="#01052F"/>
<path d="M97.9551 13.4543C97.9551 16.0963 96.4965 17.7829 94.3068 17.7829C92.913 17.7829 91.9724 17.1338 91.5344 16.26V17.6058H89.874V6.07812H91.5877V10.7627C92.058 9.7424 93.111 9.17515 94.3925 9.17515C96.5613 9.17515 97.9551 10.8617 97.9551 13.4543ZM96.2414 13.519C96.2414 11.8496 95.3179 10.7151 93.9069 10.7151C92.496 10.7151 91.523 11.8572 91.523 13.519C91.523 15.1808 92.496 16.3229 93.9069 16.3229C95.3179 16.3229 96.2357 15.2055 96.2357 13.5133L96.2414 13.519Z" fill="#01052F"/>
<path d="M106.135 11.8524V17.6067H104.498V16.358C103.833 17.4278 102.796 17.7856 101.79 17.7856C100.088 17.7856 99.0996 16.7806 99.0996 15.3111C99.0996 13.4304 100.672 13.0268 101.678 12.8631L103.445 12.5871C103.801 12.5395 104.483 12.4101 104.483 11.5992C104.483 10.8701 103.898 10.5618 102.959 10.5618C101.792 10.5618 101.127 11.0472 100.949 11.9551H99.3281C99.5185 10.2686 100.869 9.18362 103.041 9.18362C104.953 9.17791 106.135 10.0212 106.135 11.8524ZM104.433 14.1061V13.516C104.058 13.6262 103.676 13.7127 103.291 13.7749L102.35 13.9215C101.927 13.9862 100.792 14.1632 100.792 15.233C100.792 15.9468 101.295 16.3523 102.188 16.3523C103.492 16.3428 104.433 15.4519 104.433 14.1061Z" fill="#01052F"/>
<path d="M115.234 12.2557V17.6046H113.531V12.4346C113.531 11.3629 112.899 10.6986 111.894 10.6986C110.612 10.6986 109.818 11.6504 109.818 13.1732V17.6046H108.104V9.33758H109.818V10.5692C110.389 9.59646 111.13 9.17578 112.347 9.17578C114.196 9.17578 115.234 10.2284 115.234 12.2557Z" fill="#01052F"/>
<path d="M122.774 17.6039L120.163 14.1186L118.914 15.4511V17.6039H117.2V6.07812H118.914V13.243L122.353 9.33695H124.622L121.292 12.9041L124.811 17.6039H122.774Z" fill="#01052F"/>
<path d="M132.389 13.9574H126.357C126.357 15.4974 127.298 16.3559 128.773 16.3559C129.796 16.3559 130.508 15.918 130.799 15.1738H132.309C131.904 16.7289 130.525 17.7835 128.644 17.7835C126.292 17.7835 124.752 16.1293 124.752 13.5367C124.752 10.8947 126.357 9.17578 128.709 9.17578C130.946 9.17578 132.389 10.7481 132.389 13.2436V13.9574ZM128.676 10.6015C127.395 10.6015 126.487 11.3972 126.374 12.7087H130.754C130.752 11.4295 129.973 10.6015 128.676 10.6015Z" fill="#01052F"/>
<path d="M141 12.2557V17.6046H139.298V12.4346C139.298 11.3629 138.666 10.6986 137.66 10.6986C136.379 10.6986 135.585 11.6504 135.585 13.1732V17.6046H133.871V9.33758H135.585V10.5692C136.156 9.59646 136.897 9.17578 138.113 9.17578C139.962 9.17578 141 10.2284 141 12.2557Z" fill="#01052F"/>
<path d="M59.3877 34.8117H57.6949V25.7986L54.3703 34.8117H52.6833L49.3758 25.7986V34.8117H47.7383V23.4648H50.1927L53.5649 32.6874L56.9333 23.4648H59.382L59.3877 34.8117Z" fill="#01052F"/>
<path d="M69.133 30.6959C69.133 33.2904 67.5926 34.9921 65.0792 34.9921C64.4795 35.0002 63.8841 34.8895 63.3274 34.6666L62.6952 35.5746L61.3623 34.6514L62.0097 33.7111C61.3776 32.9649 61.0215 31.9275 61.0215 30.6959C61.0215 28.1185 62.5772 26.3844 65.0754 26.3844C65.6817 26.3728 66.2838 26.4889 66.8424 26.7251L67.604 25.6211L68.9179 26.5614L68.1391 27.6807C68.7751 28.4421 69.133 29.4643 69.133 30.6959ZM62.7447 30.6959C62.7313 31.2753 62.8622 31.8489 63.1255 32.3653L66.0445 28.1185C65.7352 27.9954 65.4045 27.9345 65.0715 27.9396C63.554 27.9396 62.7447 29.0417 62.7447 30.6959ZM67.4136 30.6959C67.4261 30.1165 67.2953 29.5431 67.0328 29.0265L64.0985 33.2409C64.4167 33.3736 64.7592 33.4385 65.1039 33.4312C66.6025 33.435 67.406 32.3595 67.406 30.6959H67.4136Z" fill="#01052F"/>
<path d="M75.0832 28.119H74.7595C73.1543 28.119 72.328 28.9623 72.328 30.6964V34.8137H70.6143V26.5467H72.3165V27.8601C72.8192 26.7409 73.6951 26.4648 74.6186 26.4648H75.0889L75.0832 28.119Z" fill="#01052F"/>
<path d="M83.0937 31.1645H77.0614C77.0614 32.7044 78.0021 33.5629 79.4777 33.5629C80.4984 33.5629 81.2124 33.1251 81.5037 32.3808H83.0194C82.6157 33.936 81.2372 34.9905 79.3559 34.9905C77.0043 34.9905 75.4639 33.3364 75.4639 30.7438C75.4639 28.0998 77.069 26.3828 79.4206 26.3828C81.658 26.3828 83.1013 27.9551 83.1013 30.4506L83.0937 31.1645ZM79.3806 27.8085C78.0992 27.8085 77.1909 28.6023 77.0786 29.9157H81.458C81.4561 28.6347 80.6773 27.8085 79.3806 27.8085Z" fill="#01052F"/>
</svg>